<?xml version="1.0" standalone="no"?>
<!DOCTYPE svg PUBLIC "-//W3C//DTD SVG 20010904//EN"
 "http://www.w3.org/TR/2001/REC-SVG-20010904/DTD/svg10.dtd">
<svg version="1.0" xmlns="http://www.w3.org/2000/svg"
 width="200.000000pt" height="200.000000pt" viewBox="0 0 200.000000 200.000000"
 preserveAspectRatio="xMidYMid meet">

<g transform="translate(0.000000,200.000000) scale(0.100000,-0.100000)"
fill="#000000" stroke="none">
<path d="M0 1000 l0 -1000 1000 0 1000 0 0 1000 0 1000 -1000 0 -1000 0 0
-1000z m1280 464 c82 -39 144 -101 184 -184 l31 -65 3 -357 3 -358 -250 0
-251 0 0 125 0 125 125 0 125 0 0 200 c0 223 -5 245 -63 280 -29 18 -51 20
-234 20 l-203 0 0 -375 0 -375 -125 0 -125 0 0 501 0 500 358 -3 357 -3 65
-31z"/>
</g>
</svg>
